<svg xmlns="http://www.w3.org/2000/svg" width="70.640" height="26.745" viewBox="0 0 70.640 26.745" fill="#ffffff">
  <path d="M 70.559 8.03 C 70.508 8.328 70.507 8.662 70.308 8.908 C 70.147 9.11 69.874 9.166 69.629 9.164 C 69.028 9.164 68.427 9.163 67.827 9.164 C 67.496 11.423 67.163 13.684 66.836 15.946 C 66.784 16.427 66.715 16.955 66.946 17.401 C 67.122 17.729 67.52 17.822 67.863 17.821 C 68.211 17.845 68.583 17.702 68.915 17.861 C 69.129 17.968 69.16 18.241 69.127 18.455 C 69.065 18.871 69.01 19.29 68.935 19.705 C 68.871 20.015 68.621 20.271 68.314 20.345 C 67.843 20.457 67.358 20.493 66.876 20.494 C 66.186 20.487 65.471 20.374 64.875 20.001 C 64.428 19.73 64.087 19.296 63.908 18.804 C 63.661 18.129 63.666 17.391 63.762 16.687 C 64.118 14.179 64.476 11.671 64.833 9.164 C 64.439 9.16 64.044 9.169 63.651 9.159 C 63.399 9.157 63.127 9.027 63.04 8.775 C 62.929 8.469 63.046 8.143 63.076 7.835 C 63.133 7.512 63.127 7.143 63.367 6.892 C 63.556 6.688 63.853 6.666 64.115 6.673 C 64.477 6.674 64.84 6.673 65.204 6.674 C 65.39 5.389 65.572 4.104 65.759 2.821 C 65.792 2.592 65.877 2.35 66.073 2.211 C 66.246 2.085 66.467 2.065 66.674 2.067 C 67.135 2.07 67.595 2.064 68.055 2.07 C 68.284 2.07 68.535 2.16 68.653 2.37 C 68.779 2.584 68.74 2.842 68.705 3.076 C 68.535 4.275 68.366 5.474 68.198 6.674 C 68.784 6.677 69.369 6.668 69.954 6.677 C 70.198 6.681 70.46 6.794 70.567 7.027 C 70.717 7.346 70.596 7.7 70.559 8.03 Z M 60.102 19.253 C 60.065 19.526 60.037 19.829 59.838 20.038 C 59.673 20.212 59.42 20.259 59.19 20.256 C 58.794 20.254 58.399 20.257 58.004 20.255 C 57.746 20.258 57.458 20.152 57.343 19.906 C 57.199 19.607 57.315 19.273 57.337 18.962 C 57.058 19.381 56.703 19.755 56.269 20.011 C 55.591 20.42 54.781 20.543 54.003 20.517 C 53.034 20.49 52.055 20.149 51.352 19.467 C 50.577 18.733 50.187 17.668 50.126 16.618 C 50.065 15.853 50.211 15.096 50.307 14.342 C 50.438 13.374 50.566 12.407 50.7 11.441 C 50.893 10.15 51.415 8.881 52.326 7.934 C 53.06 7.159 54.054 6.636 55.111 6.488 C 55.833 6.392 56.582 6.421 57.281 6.64 C 57.984 6.849 58.613 7.377 58.823 8.101 C 58.886 7.763 58.887 7.405 59.023 7.085 C 59.136 6.812 59.435 6.673 59.719 6.676 C 60.156 6.671 60.594 6.673 61.032 6.674 C 61.293 6.67 61.582 6.779 61.695 7.032 C 61.833 7.33 61.733 7.659 61.697 7.968 C 61.166 11.73 60.633 15.492 60.102 19.253 Z M 57.687 9.479 C 57.238 9.018 56.546 8.92 55.936 9.003 C 55.379 9.074 54.85 9.346 54.476 9.767 C 53.978 10.323 53.737 11.061 53.642 11.792 C 53.479 13.024 53.302 14.255 53.147 15.489 C 53.088 16.135 53.143 16.854 53.569 17.375 C 53.907 17.793 54.461 17.96 54.981 17.952 C 55.63 17.96 56.294 17.737 56.759 17.272 C 57.326 16.717 57.588 15.927 57.691 15.155 C 57.862 13.924 58.051 12.696 58.212 11.465 C 58.277 10.775 58.192 9.996 57.687 9.479 Z M 48.383 14.429 C 48.285 15.116 48.223 15.813 48.023 16.481 C 47.701 17.614 47.082 18.683 46.166 19.433 C 45.362 20.101 44.333 20.486 43.291 20.517 C 42.592 20.538 41.871 20.448 41.245 20.121 C 40.825 19.903 40.472 19.554 40.275 19.122 C 39.933 21.42 39.586 23.717 39.241 26.014 C 39.206 26.347 38.98 26.68 38.629 26.722 C 38.214 26.766 37.798 26.731 37.383 26.742 C 37.091 26.735 36.759 26.787 36.512 26.594 C 36.291 26.425 36.262 26.116 36.308 25.86 C 37.172 19.72 38.033 13.58 38.897 7.439 C 38.928 7.13 39.098 6.799 39.419 6.718 C 39.761 6.633 40.119 6.69 40.467 6.674 C 40.806 6.682 41.223 6.609 41.473 6.899 C 41.718 7.207 41.575 7.616 41.547 7.969 C 41.999 7.229 42.772 6.724 43.613 6.553 C 44.773 6.312 46.059 6.417 47.073 7.075 C 47.868 7.582 48.419 8.42 48.653 9.33 C 48.848 10.064 48.863 10.839 48.766 11.588 C 48.638 12.535 48.51 13.482 48.383 14.429 Z M 45.182 9.373 C 44.728 8.987 44.091 8.928 43.524 9.008 C 42.985 9.084 42.472 9.342 42.104 9.745 C 41.617 10.269 41.369 10.97 41.263 11.667 C 41.133 12.567 41.006 13.468 40.876 14.368 C 40.795 15.005 40.647 15.645 40.732 16.289 C 40.787 16.768 40.98 17.254 41.362 17.563 C 41.768 17.896 42.318 17.982 42.827 17.945 C 43.407 17.91 43.977 17.669 44.381 17.245 C 44.884 16.723 45.134 16.008 45.245 15.303 C 45.377 14.397 45.504 13.491 45.635 12.585 C 45.703 12.037 45.824 11.494 45.809 10.939 C 45.796 10.369 45.632 9.754 45.182 9.373 Z M 35.758 13.698 C 35.728 13.924 35.666 14.163 35.491 14.321 C 35.328 14.472 35.097 14.511 34.883 14.51 C 32.769 14.509 30.655 14.509 28.542 14.51 C 28.45 15.313 28.196 16.145 28.454 16.942 C 28.597 17.423 29.015 17.793 29.502 17.892 C 30.138 18.026 30.838 17.944 31.394 17.593 C 31.845 17.31 32.157 16.849 32.339 16.354 C 32.448 16.053 32.708 15.787 33.041 15.764 C 33.48 15.743 33.919 15.763 34.359 15.755 C 34.614 15.752 34.901 15.753 35.103 15.934 C 35.285 16.092 35.304 16.364 35.239 16.584 C 34.873 17.794 34.142 18.922 33.083 19.629 C 31.87 20.452 30.328 20.666 28.904 20.433 C 27.857 20.263 26.836 19.745 26.196 18.876 C 25.487 17.938 25.286 16.703 25.407 15.554 C 25.523 14.627 25.668 13.704 25.796 12.78 C 25.925 11.952 25.991 11.107 26.249 10.305 C 26.555 9.307 27.108 8.368 27.907 7.687 C 28.7 7.003 29.713 6.612 30.743 6.489 C 31.805 6.364 32.925 6.442 33.9 6.915 C 34.656 7.279 35.28 7.908 35.635 8.673 C 36.091 9.635 36.156 10.738 36.022 11.783 C 35.937 12.421 35.845 13.059 35.758 13.698 Z M 32.689 9.386 C 32.244 9.018 31.63 8.97 31.078 9.022 C 30.448 9.076 29.848 9.42 29.505 9.956 C 29.056 10.62 28.97 11.435 28.86 12.207 C 30.246 12.208 31.632 12.207 33.017 12.208 C 33.092 11.678 33.22 11.151 33.203 10.613 C 33.19 10.162 33.047 9.681 32.689 9.386 Z M 22.555 19.509 C 22.522 19.775 22.396 20.058 22.138 20.173 C 21.83 20.307 21.485 20.238 21.16 20.256 C 20.789 20.238 20.411 20.293 20.045 20.219 C 19.712 20.143 19.548 19.772 19.61 19.455 C 20.471 13.295 21.342 7.135 22.205 0.974 C 22.237 0.73 22.265 0.467 22.424 0.266 C 22.548 0.105 22.751 0.025 22.95 0.01 C 23.425 -0.008 23.901 0.008 24.377 0 C 24.603 -0.004 24.856 0.025 25.022 0.198 C 25.205 0.381 25.21 0.664 25.171 0.904 C 24.297 7.105 23.429 13.307 22.555 19.509 Z M 18.167 13.714 C 18.137 13.922 18.08 14.138 17.931 14.292 C 17.782 14.45 17.558 14.507 17.348 14.509 C 15.215 14.514 13.083 14.504 10.951 14.514 C 10.861 15.342 10.586 16.212 10.895 17.026 C 11.074 17.53 11.566 17.867 12.085 17.926 C 12.958 18.062 13.937 17.747 14.432 16.978 C 14.694 16.65 14.723 16.172 15.071 15.91 C 15.388 15.676 15.802 15.777 16.166 15.755 C 16.542 15.774 16.932 15.706 17.3 15.81 C 17.601 15.894 17.753 16.241 17.662 16.532 C 17.382 17.497 16.872 18.406 16.145 19.103 C 15.353 19.869 14.301 20.335 13.215 20.468 C 12.099 20.602 10.922 20.493 9.911 19.972 C 9.169 19.595 8.555 18.967 8.206 18.207 C 7.782 17.301 7.714 16.267 7.85 15.286 C 8.032 14.003 8.215 12.718 8.4 11.436 C 8.593 10.167 9.092 8.908 10.002 7.984 C 10.805 7.152 11.91 6.654 13.045 6.503 C 14.169 6.354 15.365 6.43 16.389 6.955 C 17.138 7.335 17.744 7.979 18.083 8.751 C 18.499 9.683 18.562 10.737 18.439 11.74 C 18.351 12.399 18.255 13.056 18.167 13.714 Z M 15.124 9.407 C 14.694 9.031 14.084 8.974 13.538 9.017 C 12.921 9.059 12.321 9.372 11.965 9.887 C 11.476 10.557 11.384 11.408 11.272 12.207 C 12.657 12.207 14.044 12.208 15.43 12.207 C 15.497 11.719 15.61 11.234 15.616 10.74 C 15.621 10.259 15.5 9.735 15.124 9.407 Z M 7.315 8.907 C 7.155 9.11 6.882 9.166 6.638 9.164 C 6.037 9.164 5.435 9.163 4.834 9.164 C 4.504 11.423 4.171 13.683 3.843 15.944 C 3.793 16.412 3.73 16.916 3.931 17.358 C 4.08 17.688 4.463 17.814 4.801 17.818 C 5.163 17.857 5.539 17.707 5.89 17.845 C 6.104 17.928 6.167 18.184 6.141 18.393 C 6.091 18.794 6.023 19.193 5.965 19.593 C 5.928 19.878 5.765 20.153 5.5 20.276 C 5.237 20.398 4.94 20.416 4.657 20.455 C 3.783 20.54 2.852 20.511 2.054 20.1 C 1.558 19.848 1.159 19.413 0.952 18.895 C 0.667 18.199 0.669 17.423 0.769 16.687 C 1.126 14.179 1.484 11.671 1.84 9.164 C 1.447 9.16 1.053 9.169 0.659 9.159 C 0.424 9.155 0.17 9.046 0.067 8.822 C -0.07 8.531 0.04 8.206 0.073 7.906 C 0.133 7.588 0.121 7.237 0.314 6.962 C 0.453 6.764 0.701 6.68 0.935 6.676 C 1.36 6.669 1.786 6.676 2.211 6.674 C 2.397 5.389 2.581 4.104 2.767 2.82 C 2.801 2.559 2.917 2.281 3.165 2.16 C 3.448 2.02 3.774 2.08 4.078 2.068 C 4.471 2.08 4.869 2.04 5.26 2.094 C 5.594 2.146 5.797 2.498 5.744 2.821 C 5.573 4.105 5.383 5.389 5.206 6.673 C 5.771 6.675 6.338 6.671 6.905 6.674 C 7.152 6.671 7.425 6.758 7.552 6.987 C 7.724 7.287 7.618 7.64 7.577 7.96 C 7.517 8.279 7.529 8.641 7.315 8.907 Z" fill="#ffffff" fill-rule="evenodd"></path>
</svg>