<svg xmlns="http://www.w3.org/2000/svg" width="116.741" height="123.223" viewBox="0 0 116.741 123.223"><defs><linearGradient id="g" x1="0" y1="0" x2="1" y2="1"><stop offset="0%" stop-color="#CF83F4"></stop><stop offset="100%" stop-color="#E11E8D"></stop></linearGradient></defs>
  <path fill="url(#g)" d="M 114.198 40.106 C 112.09 32.421 108.095 25.278 102.714 19.431 C 96.834 13.011 89.31 8.139 81.078 5.379 C 75.828 3.608 70.302 2.681 64.765 2.639 L 64.451 2.639 C 59.166 2.652 53.898 3.277 48.709 4.257 C 42.181 5.507 35.758 7.333 29.546 9.722 C 23.331 12.137 17.253 15.071 11.874 19.06 C 9.245 21.037 6.766 23.296 4.92 26.046 C 3.531 28.123 2.543 30.571 2.629 33.109 C 2.694 35.833 3.929 38.389 5.561 40.512 C 7.295 42.77 9.453 44.659 11.723 46.35 C 17.539 50.667 23.037 55.451 27.886 60.852 C 31.379 64.743 34.53 68.953 37.164 73.477 C 39.674 77.771 41.703 82.345 43.211 87.088 C 44.861 92.213 45.84 97.518 46.66 102.829 C 47.148 105.803 47.553 108.803 48.375 111.71 C 48.965 113.766 49.853 115.826 51.433 117.314 C 53.043 118.852 55.204 119.632 57.346 120.055 C 62.6 121.067 68.088 120.588 73.153 118.895 C 80.41 116.484 86.774 111.896 92.148 106.505 C 95.026 103.611 97.643 100.463 100.029 97.15 L 102.761 97.731 C 98.585 103.676 93.705 109.16 87.984 113.639 C 84.134 116.65 79.895 119.192 75.318 120.907 C 70.708 122.643 65.742 123.484 60.822 123.152 C 58.296 122.975 55.749 122.581 53.393 121.609 C 51.538 120.85 49.841 119.657 48.595 118.067 C 47.038 116.106 46.175 113.696 45.563 111.289 C 44.779 108.137 44.353 104.91 43.824 101.71 C 43.03 96.696 42.021 91.699 40.401 86.886 C 38.781 82.023 36.572 77.363 33.854 73.025 C 28.418 64.335 21.086 56.991 13.076 50.696 C 10.905 48.967 8.588 47.419 6.574 45.497 C 4.006 43.086 1.713 40.225 0.62 36.821 C -0.258 34.145 -0.193 31.189 0.748 28.541 C 1.687 25.838 3.365 23.458 5.295 21.379 C 8.138 18.342 11.532 15.877 15.074 13.733 C 21.109 10.111 27.639 7.389 34.312 5.217 C 40.576 3.197 47.007 1.683 53.526 0.78 C 58.723 0.081 63.999 -0.264 69.228 0.238 C 78.452 1.111 87.454 4.331 95.11 9.581 C 102.131 14.375 108.025 20.842 112.092 28.34 C 114.11 32.048 115.671 36.009 116.741 40.097 L 114.198 40.106 Z M 55.616 101.233 C 53.736 100.549 52.141 99.134 51.275 97.319 C 49.986 94.653 49.685 91.659 49.189 88.775 C 48.464 83.953 47.418 79.136 45.43 74.667 C 43.668 70.629 41.247 66.896 38.406 63.541 C 34.996 59.507 31.007 56 26.775 52.863 C 24.375 51.051 22.09 48.877 20.891 46.053 C 20.003 43.998 19.974 41.6 20.804 39.521 C 21.9 36.717 24.062 34.5 26.371 32.653 C 29.97 29.831 34.095 27.766 38.318 26.072 C 43.484 24.032 48.874 22.558 54.358 21.699 C 57.231 21.261 60.149 20.986 63.059 21.034 L 63.064 21.032 L 63.073 21.034 C 64.663 21.062 66.252 21.183 67.828 21.433 C 72.899 22.197 77.809 24.049 82.12 26.847 C 86.115 29.437 89.598 32.831 92.272 36.785 C 95.385 41.375 97.392 46.733 97.988 52.261 L 95.408 52.268 C 94.898 47.808 93.42 43.465 91.108 39.625 C 88.575 35.419 85.084 31.81 81.02 29.085 C 77.301 26.588 73.074 24.873 68.681 24.048 C 64.731 23.637 62.736 23.662 62.736 23.662 C 58.033 23.687 53.358 24.435 48.799 25.555 C 43.999 26.755 39.298 28.386 34.85 30.567 C 32.282 31.84 29.786 33.298 27.556 35.109 C 26.082 36.328 24.694 37.71 23.748 39.393 C 22.955 40.77 22.589 42.435 22.988 43.997 C 23.5 46.093 24.947 47.805 26.495 49.231 C 27.618 50.268 28.884 51.127 30.082 52.069 C 34.468 55.484 38.548 59.34 41.948 63.759 C 44.642 67.254 46.882 71.108 48.492 75.222 C 50.207 79.527 51.133 84.092 51.824 88.664 C 52.142 90.588 52.4 92.534 52.936 94.414 C 53.297 95.662 53.852 96.916 54.856 97.777 C 55.898 98.685 57.266 99.079 58.601 99.299 C 61.538 99.766 64.574 99.534 67.424 98.685 C 69.696 98.02 71.841 96.974 73.847 95.718 L 77.389 96.474 C 73.346 99.479 68.592 101.69 63.539 102.118 C 60.881 102.317 58.136 102.157 55.616 101.233 Z M 59.762 91.558 C 57.979 91.412 56.099 91.02 54.71 89.812 C 53.421 88.697 52.831 87.016 52.461 85.396 C 51.88 82.727 51.62 79.995 50.995 77.333 C 50.026 72.931 48.143 68.738 45.467 65.118 C 42.619 61.22 39.016 57.94 35.15 55.085 C 33.307 53.68 31.547 51.968 30.741 49.738 C 30.133 48.095 30.303 46.225 31.084 44.674 C 32.042 42.718 33.652 41.178 35.36 39.879 C 38.664 37.426 42.458 35.731 46.325 34.403 C 50.806 32.902 55.47 31.88 60.196 31.645 C 65.558 31.366 70.992 32.743 75.572 35.558 C 78.1 37.108 80.368 39.088 82.248 41.387 L 80.223 43.132 C 80.218 43.134 80.212 43.134 80.207 43.136 C 75.62 37.416 68.31 34.109 61.025 34.257 C 56.77 34.338 52.556 35.174 48.49 36.412 C 45.665 37.289 42.896 38.38 40.286 39.789 C 38.443 40.796 36.654 41.953 35.162 43.447 C 34.186 44.44 33.318 45.623 33.027 47.012 C 32.806 48.141 33.255 49.278 33.892 50.189 C 34.82 51.523 36.111 52.541 37.406 53.493 C 41.266 56.416 44.84 59.778 47.688 63.72 C 50.401 67.437 52.354 71.704 53.407 76.19 C 54.097 78.958 54.39 81.803 54.957 84.592 C 55.22 85.741 55.521 86.986 56.416 87.817 C 57.292 88.6 58.506 88.778 59.631 88.898 C 62.249 89.187 64.894 88.606 67.273 87.504 L 67.518 90.298 C 65.064 91.287 62.405 91.782 59.762 91.558 Z M 46.57 56.328 C 50.16 59.19 53.326 62.752 55.12 67.037 C 56.164 69.458 56.679 72.062 57.066 74.66 C 57.247 75.622 57.324 76.629 57.753 77.521 C 58.093 78.218 58.942 78.289 59.62 78.345 C 61.584 78.549 63.542 77.909 65.206 76.889 C 65.572 76.667 65.926 76.424 66.273 76.171 L 66.539 79.192 C 64.661 80.315 62.535 81.039 60.338 81.021 C 58.869 80.993 57.236 80.785 56.133 79.706 C 55.085 78.648 54.838 77.102 54.586 75.694 C 54.194 73.136 53.768 70.551 52.741 68.159 C 50.986 63.926 47.753 60.5 44.15 57.777 C 42.822 56.806 41.492 55.68 40.853 54.115 C 40.366 52.965 40.478 51.616 41.069 50.528 C 41.971 48.833 43.538 47.623 45.131 46.627 C 48.073 44.843 51.361 43.697 54.702 42.935 C 57.683 42.292 60.792 41.914 63.819 42.479 C 67.234 43.088 70.45 44.759 72.919 47.211 L 70.923 48.933 C 69.464 47.53 67.72 46.43 65.821 45.743 C 63.628 44.931 61.253 44.69 58.933 44.923 C 55.887 45.204 52.899 45.986 50.06 47.116 C 48.319 47.828 46.609 48.667 45.11 49.821 C 44.362 50.421 43.612 51.109 43.26 52.03 C 43.018 52.637 43.29 53.298 43.657 53.792 C 44.433 54.843 45.583 55.504 46.57 56.328 Z M 84.562 18.808 C 79.589 15.968 74.048 14.15 68.375 13.451 C 64.295 12.919 60.161 13.104 56.085 13.556 C 49.955 14.27 43.911 15.69 38.063 17.666 C 33.262 19.299 28.571 21.31 24.197 23.903 C 21.026 25.812 17.964 28.021 15.581 30.893 C 14.064 32.754 12.794 34.988 12.704 37.449 C 12.611 39.754 13.612 41.951 14.978 43.747 C 16.418 45.648 18.232 47.227 20.137 48.641 C 25.157 52.373 29.89 56.525 34.032 61.233 C 37.264 64.903 40.124 68.916 42.417 73.247 C 44.442 77.051 46.008 81.095 47.124 85.261 C 48 88.49 48.595 91.785 49.119 95.086 C 49.578 97.842 49.92 100.63 50.72 103.314 C 51.268 105.146 52.204 106.96 53.798 108.079 C 55.696 109.424 58.063 109.815 60.328 110.014 C 65.598 110.463 70.899 109.065 75.541 106.592 C 80.79 103.803 85.301 99.775 89.16 95.273 L 92.076 95.895 C 89.372 99.185 86.362 102.231 83.003 104.847 C 79.442 107.62 75.471 109.914 71.172 111.305 C 66.581 112.799 61.598 113.185 56.865 112.169 C 54.617 111.678 52.395 110.697 50.827 108.958 C 49.103 107.078 48.278 104.576 47.714 102.132 C 46.977 98.821 46.588 95.447 45.97 92.115 C 45.062 86.97 43.65 81.891 41.447 77.146 C 37.691 68.944 31.79 61.903 25.064 55.993 C 23.151 54.31 21.17 52.708 19.136 51.18 C 16.427 49.201 13.825 46.951 12.021 44.079 C 10.622 41.875 9.816 39.215 10.142 36.588 C 10.482 33.585 12.097 30.896 14.062 28.676 C 16.801 25.611 20.207 23.234 23.745 21.201 C 28.455 18.525 33.487 16.454 38.632 14.789 C 43.873 13.108 49.252 11.845 54.705 11.106 C 59.613 10.454 64.616 10.204 69.533 10.923 C 78.829 12.199 87.709 16.423 94.535 22.903 C 101.176 29.148 105.863 37.504 107.562 46.5 C 107.921 48.391 108.154 50.308 108.256 52.233 L 105.62 52.24 C 105.299 47.171 104.061 42.159 101.903 37.564 C 98.237 29.708 92.066 23.081 84.562 18.808 Z" fill="currentColor" fill-rule="nonzero"></path>
</svg>