<svg xmlns="http://www.w3.org/2000/svg" width="149.661" height="56.663" viewBox="0 0 149.661 56.663" fill="#000000">
  <path d="M 149.49 17.013 C 149.382 17.643 149.38 18.351 148.958 18.872 C 148.616 19.302 148.038 19.42 147.52 19.415 C 146.246 19.415 144.973 19.413 143.701 19.415 C 143.001 24.201 142.295 28.992 141.601 33.784 C 141.492 34.804 141.345 35.922 141.834 36.867 C 142.207 37.561 143.051 37.758 143.777 37.756 C 144.516 37.807 145.302 37.504 146.006 37.841 C 146.46 38.068 146.525 38.647 146.455 39.099 C 146.325 39.981 146.208 40.869 146.048 41.747 C 145.913 42.406 145.383 42.948 144.733 43.103 C 143.736 43.341 142.708 43.418 141.687 43.42 C 140.224 43.406 138.709 43.165 137.448 42.376 C 136.5 41.8 135.777 40.881 135.398 39.839 C 134.875 38.409 134.885 36.846 135.088 35.355 C 135.843 30.04 136.602 24.726 137.359 19.415 C 136.523 19.407 135.687 19.427 134.854 19.406 C 134.319 19.4 133.743 19.124 133.559 18.591 C 133.325 17.943 133.571 17.253 133.636 16.599 C 133.755 15.916 133.743 15.133 134.251 14.601 C 134.652 14.17 135.281 14.122 135.836 14.138 C 136.604 14.14 137.373 14.138 138.145 14.14 C 138.539 11.418 138.924 8.694 139.32 5.976 C 139.39 5.492 139.571 4.978 139.986 4.684 C 140.352 4.418 140.82 4.376 141.259 4.379 C 142.235 4.386 143.209 4.372 144.185 4.385 C 144.67 4.386 145.201 4.576 145.451 5.02 C 145.717 5.474 145.635 6.022 145.561 6.517 C 145.201 9.057 144.843 11.598 144.488 14.14 C 145.728 14.145 146.968 14.128 148.208 14.145 C 148.725 14.156 149.28 14.393 149.506 14.888 C 149.823 15.564 149.567 16.314 149.49 17.013 Z M 127.336 40.791 C 127.257 41.369 127.197 42.01 126.775 42.453 C 126.425 42.823 125.889 42.922 125.402 42.915 C 124.565 42.911 123.727 42.918 122.89 42.913 C 122.343 42.92 121.734 42.694 121.489 42.173 C 121.184 41.541 121.431 40.834 121.476 40.173 C 120.886 41.061 120.133 41.853 119.213 42.397 C 117.777 43.263 116.062 43.524 114.412 43.469 C 112.361 43.411 110.287 42.689 108.796 41.244 C 107.155 39.689 106.328 37.432 106.199 35.207 C 106.071 33.587 106.379 31.983 106.582 30.385 C 106.861 28.335 107.131 26.286 107.414 24.238 C 107.824 21.504 108.929 18.816 110.86 16.809 C 112.415 15.168 114.521 14.059 116.761 13.745 C 118.29 13.543 119.877 13.603 121.359 14.068 C 122.848 14.511 124.181 15.629 124.624 17.163 C 124.759 16.446 124.761 15.689 125.048 15.011 C 125.288 14.432 125.922 14.138 126.523 14.143 C 127.45 14.133 128.376 14.138 129.305 14.14 C 129.858 14.131 130.469 14.362 130.709 14.899 C 131.002 15.529 130.79 16.226 130.715 16.881 C 129.588 24.851 128.46 32.821 127.336 40.791 Z M 122.217 20.082 C 121.266 19.106 119.8 18.899 118.507 19.075 C 117.329 19.224 116.208 19.8 115.416 20.693 C 114.36 21.87 113.85 23.434 113.648 24.983 C 113.303 27.594 112.928 30.201 112.599 32.816 C 112.475 34.184 112.592 35.707 113.494 36.811 C 114.209 37.696 115.384 38.052 116.484 38.034 C 117.859 38.05 119.268 37.578 120.252 36.594 C 121.454 35.418 122.009 33.744 122.226 32.108 C 122.589 29.501 122.99 26.899 123.33 24.29 C 123.468 22.828 123.288 21.179 122.217 20.082 Z M 102.506 30.569 C 102.3 32.025 102.168 33.503 101.744 34.918 C 101.061 37.318 99.751 39.582 97.81 41.172 C 96.106 42.587 93.927 43.402 91.718 43.469 C 90.238 43.513 88.71 43.321 87.383 42.629 C 86.495 42.168 85.745 41.429 85.328 40.513 C 84.605 45.381 83.869 50.247 83.138 55.115 C 83.063 55.819 82.585 56.525 81.84 56.615 C 80.963 56.707 80.08 56.633 79.201 56.657 C 78.582 56.642 77.878 56.753 77.356 56.344 C 76.887 55.985 76.827 55.33 76.924 54.788 C 78.754 41.781 80.578 28.77 82.408 15.761 C 82.475 15.106 82.835 14.406 83.515 14.233 C 84.238 14.054 84.997 14.173 85.736 14.14 C 86.453 14.157 87.337 14.003 87.866 14.617 C 88.385 15.268 88.083 16.136 88.024 16.883 C 88.98 15.316 90.618 14.245 92.401 13.883 C 94.859 13.372 97.582 13.596 99.73 14.988 C 101.415 16.064 102.583 17.839 103.079 19.767 C 103.492 21.323 103.524 22.964 103.317 24.552 C 103.048 26.557 102.776 28.564 102.506 30.569 Z M 95.724 19.858 C 94.762 19.04 93.413 18.916 92.212 19.085 C 91.07 19.245 89.982 19.793 89.203 20.645 C 88.173 21.756 87.645 23.242 87.421 24.719 C 87.146 26.626 86.876 28.534 86.601 30.441 C 86.43 31.79 86.116 33.147 86.297 34.511 C 86.412 35.525 86.822 36.555 87.631 37.21 C 88.491 37.916 89.656 38.098 90.735 38.018 C 91.963 37.944 93.172 37.434 94.027 36.536 C 95.093 35.43 95.622 33.916 95.859 32.422 C 96.137 30.503 96.407 28.582 96.684 26.663 C 96.827 25.503 97.085 24.351 97.053 23.177 C 97.025 21.967 96.679 20.666 95.724 19.858 Z M 75.759 29.02 C 75.694 29.499 75.563 30.006 75.193 30.341 C 74.848 30.661 74.357 30.744 73.904 30.742 C 69.425 30.74 64.948 30.74 60.471 30.742 C 60.276 32.443 59.737 34.205 60.283 35.893 C 60.588 36.913 61.472 37.696 62.504 37.907 C 63.851 38.191 65.335 38.017 66.514 37.274 C 67.468 36.673 68.129 35.696 68.516 34.649 C 68.745 34.01 69.297 33.448 70.001 33.399 C 70.931 33.353 71.863 33.397 72.795 33.379 C 73.335 33.372 73.942 33.376 74.37 33.758 C 74.757 34.094 74.797 34.67 74.659 35.135 C 73.883 37.7 72.334 40.089 70.09 41.587 C 67.521 43.33 64.254 43.784 61.238 43.29 C 59.018 42.93 56.855 41.832 55.499 39.992 C 53.998 38.004 53.573 35.388 53.828 32.953 C 54.074 30.99 54.382 29.034 54.653 27.076 C 54.927 25.321 55.065 23.532 55.611 21.834 C 56.261 19.717 57.431 17.728 59.125 16.286 C 60.805 14.837 62.951 14.008 65.133 13.747 C 67.384 13.483 69.756 13.649 71.821 14.65 C 73.424 15.422 74.746 16.754 75.498 18.374 C 76.465 20.413 76.601 22.751 76.318 24.964 C 76.137 26.316 75.943 27.668 75.759 29.02 Z M 69.257 19.885 C 68.313 19.106 67.013 19.004 65.843 19.115 C 64.508 19.228 63.238 19.959 62.511 21.094 C 61.56 22.499 61.378 24.226 61.145 25.862 C 64.081 25.863 67.016 25.862 69.952 25.863 C 70.11 24.742 70.381 23.626 70.344 22.485 C 70.318 21.531 70.015 20.511 69.257 19.885 Z M 47.787 41.332 C 47.715 41.897 47.449 42.495 46.902 42.74 C 46.249 43.024 45.519 42.878 44.83 42.915 C 44.044 42.878 43.243 42.994 42.467 42.837 C 41.763 42.677 41.414 41.89 41.548 41.219 C 43.371 28.168 45.216 15.117 47.044 2.064 C 47.113 1.547 47.172 0.988 47.508 0.564 C 47.771 0.223 48.202 0.054 48.622 0.02 C 49.63 -0.017 50.639 0.017 51.646 0.001 C 52.124 -0.008 52.66 0.054 53.012 0.42 C 53.401 0.807 53.411 1.407 53.329 1.916 C 51.478 15.054 49.638 28.193 47.787 41.332 Z M 38.489 29.055 C 38.426 29.495 38.305 29.953 37.99 30.281 C 37.675 30.615 37.2 30.735 36.755 30.74 C 32.236 30.751 27.718 30.73 23.201 30.749 C 23.01 32.504 22.429 34.348 23.084 36.073 C 23.462 37.14 24.504 37.855 25.604 37.978 C 27.454 38.267 29.528 37.599 30.577 35.971 C 31.132 35.275 31.194 34.263 31.931 33.707 C 32.602 33.212 33.478 33.425 34.25 33.379 C 35.047 33.42 35.872 33.275 36.652 33.495 C 37.291 33.673 37.612 34.409 37.419 35.025 C 36.827 37.069 35.746 38.995 34.206 40.473 C 32.528 42.096 30.299 43.082 27.997 43.365 C 25.634 43.649 23.14 43.418 20.997 42.314 C 19.426 41.515 18.125 40.184 17.386 38.575 C 16.487 36.656 16.343 34.464 16.631 32.386 C 17.018 29.668 17.405 26.944 17.797 24.228 C 18.205 21.54 19.263 18.872 21.19 16.915 C 22.893 15.152 25.233 14.098 27.638 13.777 C 30.02 13.462 32.553 13.622 34.721 14.735 C 36.308 15.54 37.594 16.906 38.311 18.54 C 39.193 20.515 39.327 22.747 39.066 24.872 C 38.88 26.268 38.677 27.661 38.489 29.055 Z M 32.043 19.93 C 31.131 19.133 29.84 19.013 28.682 19.103 C 27.375 19.193 26.103 19.856 25.35 20.946 C 24.313 22.367 24.119 24.17 23.881 25.862 C 26.816 25.862 29.754 25.863 32.691 25.862 C 32.833 24.828 33.071 23.802 33.084 22.754 C 33.096 21.735 32.838 20.624 32.043 19.93 Z M 15.497 18.87 C 15.159 19.302 14.581 19.42 14.063 19.415 C 12.789 19.415 11.516 19.413 10.242 19.415 C 9.542 24.201 8.836 28.99 8.142 33.781 C 8.035 34.772 7.902 35.839 8.328 36.775 C 8.645 37.474 9.456 37.742 10.171 37.751 C 10.94 37.832 11.735 37.515 12.479 37.807 C 12.933 37.983 13.066 38.525 13.01 38.967 C 12.905 39.818 12.761 40.663 12.637 41.511 C 12.56 42.113 12.215 42.698 11.652 42.959 C 11.095 43.216 10.467 43.254 9.868 43.337 C 8.014 43.517 6.042 43.455 4.352 42.585 C 3.301 42.052 2.456 41.129 2.017 40.032 C 1.412 38.557 1.418 36.913 1.63 35.355 C 2.385 30.041 3.143 24.726 3.898 19.415 C 3.066 19.407 2.23 19.427 1.397 19.406 C 0.899 19.395 0.36 19.166 0.142 18.691 C -0.148 18.075 0.085 17.386 0.155 16.749 C 0.283 16.076 0.256 15.332 0.666 14.749 C 0.96 14.33 1.484 14.152 1.98 14.143 C 2.882 14.129 3.784 14.143 4.684 14.14 C 5.079 11.418 5.467 8.694 5.863 5.974 C 5.933 5.422 6.18 4.832 6.706 4.576 C 7.305 4.281 7.995 4.407 8.64 4.381 C 9.473 4.407 10.316 4.321 11.144 4.436 C 11.852 4.547 12.281 5.293 12.169 5.976 C 11.807 8.698 11.404 11.418 11.029 14.138 C 12.227 14.142 13.429 14.133 14.628 14.14 C 15.152 14.133 15.73 14.318 16 14.804 C 16.364 15.439 16.14 16.186 16.053 16.863 C 15.926 17.541 15.951 18.307 15.497 18.87 Z" fill="#000000" fill-rule="evenodd"></path>
</svg>